<?xml version="1.0" standalone="no"?>
<!DOCTYPE svg PUBLIC "-//W3C//DTD SVG 20010904//EN"
 "http://www.w3.org/TR/2001/REC-SVG-20010904/DTD/svg10.dtd">
<svg version="1.0" xmlns="http://www.w3.org/2000/svg"
 width="180.000000pt" height="180.000000pt" viewBox="0 0 180.000000 180.000000"
 preserveAspectRatio="xMidYMid meet">
<metadata>
Created by potrace 1.11, written by Peter Selinger 2001-2013
</metadata>
<g transform="translate(0.000000,180.000000) scale(0.100000,-0.100000)"
fill="#000000" stroke="none">
<path d="M0 900 l0 -900 900 0 900 0 0 900 0 900 -900 0 -900 0 0 -900z m661
414 c79 -24 143 -90 158 -164 14 -69 1 -149 -34 -202 -24 -35 -103 -98 -124
-98 -6 0 -11 -3 -11 -7 0 -3 64 -86 142 -182 77 -97 145 -182 151 -188 7 -10
-7 -13 -66 -13 l-75 0 -138 175 -137 175 -64 0 -63 0 0 -175 0 -175 -60 0 -60
0 0 435 0 435 163 0 c121 0 177 -4 218 -16z m939 -39 l0 -55 -145 0 -145 0 0
-380 0 -380 -60 0 -60 0 0 380 0 380 -145 0 -145 0 0 55 0 55 350 0 350 0 0
-55z"/>
<path d="M400 1070 l0 -163 101 5 c107 5 131 15 173 71 24 33 33 125 16 167
-22 53 -69 73 -186 78 l-104 5 0 -163z"/>
</g>
</svg>
